<?xml version="1.0" encoding="UTF-8"?>
<svg id="Layer_2" data-name="Layer 2" xmlns="http://www.w3.org/2000/svg" viewBox="0 0 472.67 438.26">
  <defs>
    <style>
      .cls-1 {
        fill: #fff;
      }

      .cls-2 {
        fill: #455a64;
      }

      .cls-3 {
        fill: #ffbf9d;
      }

      .cls-4 {
        fill: #e0e0e0;
      }

      .cls-5 {
        fill: #ff9a6c;
      }

      .cls-6 {
        fill: #ff725e;
      }

      .cls-7 {
        opacity: .3;
      }

      .cls-8 {
        fill: #ebebeb;
      }

      .cls-9 {
        fill: #263238;
      }
    </style>
  </defs>
  <g id="Layer_1-2" data-name="Layer 1">
    <g id="Background_Complete" data-name="Background Complete">
      <g>
        <path class="cls-8" d="m243.03,2.62c-5.63-2.66-11.89-2.96-15.87-2.35-3.73.57-9.12,1.99-13.66,5.54-2.82,2.21-4.92,4.96-6.24,8.17-1.56,3.81-2.04,8.3-1.42,13.35.09.76.48,1.43,1.09,1.89.61.46,1.37.66,2.13.54l9.77-1.49c1.38-.21,2.41-1.42,2.39-2.81-.03-3.13,1-8.57,8.29-9.81,5.56-.94,8.47,2.74,9.46,4.37,1.62,2.65,1.83,6.05.56,9.1-1.95,4.68-6.63,6.07-9.25,6.47-3.01.47-5.09,3.29-4.63,6.28l1.6,10.51c.23,1.54,1.67,2.6,3.21,2.36l9.52-1.45c1.54-.23,2.6-1.67,2.36-3.21l-.34-2.21c0-.05.02-.1.07-.13,2.04-1.08,5.94-3.55,9.14-7.87,4.08-5.51,5.58-12.05,4.45-19.44-1.61-10.57-7.77-15.54-12.65-17.85Z"/>
        <path class="cls-8" d="m236.12,56.61l-.83.13c-3.98.61-6.73,4.34-6.12,8.32s4.34,6.73,8.32,6.12l.83-.13c3.98-.61,6.73-4.34,6.12-8.32-.61-3.98-4.34-6.73-8.32-6.12Z"/>
      </g>
      <g>
        <path class="cls-8" d="m46.92,172.36c-2.83-3.54-6.82-5.73-9.62-6.61-2.62-.82-6.6-1.62-10.7-.74-2.55.54-4.8,1.67-6.69,3.35-2.24,1.99-3.99,4.77-5.19,8.27-.18.52-.14,1.09.11,1.58.25.5.68.87,1.22,1.03l6.86,2.15c.97.3,2.03-.16,2.46-1.07.98-2.06,3.39-5.28,8.56-3.75,3.93,1.16,4.66,4.5,4.79,5.88.21,2.25-.74,4.54-2.54,6.12-2.77,2.44-6.27,1.84-8.11,1.27-2.12-.66-4.38.52-5.04,2.62l-2.32,7.38c-.34,1.08.26,2.23,1.34,2.57l6.68,2.1c1.08.34,2.23-.26,2.57-1.34l.49-1.55s.04-.06.08-.06c1.68-.06,5.02-.42,8.49-2.22,4.43-2.3,7.5-6.09,9.13-11.27,2.33-7.42-.11-12.64-2.56-15.71Z"/>
        <path class="cls-8" d="m25.13,205.43l-.58-.18c-2.8-.88-5.78.68-6.66,3.48-.88,2.8.68,5.78,3.48,6.66l.58.18c2.8.88,5.78-.68,6.66-3.48.88-2.79-.68-5.78-3.48-6.66Z"/>
      </g>
      <g>
        <path class="cls-8" d="m343.3,411.96c24.34-1.06,55.21-8.83,74.09-24.71-26.06.67-52.42,9.46-74.09,24.71"/>
        <path class="cls-8" d="m360.23,383.17c24.34-1.06,55.21-8.83,74.09-24.71-26.06.67-52.42,9.46-74.09,24.71"/>
        <path class="cls-8" d="m378.43,355.75c24.34-1.06,55.21-8.83,74.09-24.71-26.06.67-52.42,9.46-74.09,24.71"/>
        <path class="cls-8" d="m398.74,327.47c24.21-4.04,54.05-15.47,70.8-33.4-25.99,3.87-51.17,15.75-70.8,33.4"/>
        <path class="cls-8" d="m416.6,306.6c21.5-12.3,45.46-33.29,54.37-55.45-23.26,12.79-42.6,32.51-54.37,55.45"/>
        <path class="cls-8" d="m407.94,316.47c6.62-24.14,8.68-56.6-1.04-79.62-7.54,25.72-7.17,54.04,1.04,79.62"/>
        <path class="cls-8" d="m390.72,339.54c4.69-25.61,3.86-59.51-8.4-82.67-5.51,27.32-2.52,56.73,8.4,82.67"/>
        <path class="cls-8" d="m370.19,367.84c4.69-25.61,3.86-59.51-8.4-82.67-5.51,27.32-2.52,56.73,8.4,82.67"/>
        <path class="cls-8" d="m348.32,403.69c4.69-25.61,3.86-59.51-8.4-82.67-5.51,27.32-2.52,56.73,8.4,82.67"/>
        <path class="cls-4" d="m339.98,416.93c-3.52,6.51-6.29,11.83-8.11,15.54-.89,1.8-1.59,3.23-2.1,4.28-.21.45-.38.82-.52,1.12-.11.26-.17.39-.15.4s.09-.11.23-.35c.16-.29.36-.65.61-1.08.55-1.03,1.3-2.43,2.25-4.2,1.92-3.66,4.77-8.93,8.37-15.39,3.58-6.47,8-14.09,13.03-22.48,5.07-8.36,10.8-17.46,17.04-26.86,12.51-18.78,24.75-35.16,33.89-46.78,4.57-5.82,8.32-10.48,10.94-13.68,1.26-1.56,2.26-2.8,2.99-3.71.31-.39.56-.71.76-.98.17-.22.25-.34.23-.35-.01-.01-.12.09-.31.29-.22.25-.5.55-.83.92-.77.88-1.81,2.08-3.13,3.6-2.71,3.13-6.54,7.74-11.18,13.51-9.28,11.54-21.62,27.87-34.15,46.68"/>
      </g>
      <g>
        <path class="cls-8" d="m297.97,248.57c8.88-21.93,14.47-52.34,8.05-75.43-9.92,23.3-12.78,50.13-8.05,75.43"/>
        <path class="cls-8" d="m279.37,222c8.88-21.93,14.47-52.34,8.05-75.43-9.92,23.3-12.78,50.13-8.05,75.43"/>
        <path class="cls-8" d="m262.49,194.85c8.88-21.93,14.47-52.34,8.05-75.43-9.92,23.3-12.78,50.13-8.05,75.43"/>
        <path class="cls-8" d="m245.7,165.5c6.2-23.02,8.13-54-.95-76.03-7.06,24.52-6.72,51.56.95,76.03"/>
        <path class="cls-8" d="m234.46,141.31c-2.2-23.96-11.08-53.59-27.06-70.41,1.92,25.71,11.54,50.75,27.06,70.41"/>
        <path class="cls-8" d="m239.69,152.93c-18.66-15.59-46.51-30.5-70.77-31.2,19.69,17.04,44.86,28.14,70.77,31.2"/>
        <path class="cls-8" d="m253.12,177.46c-20.73-14.48-51.02-27.41-76.43-25.93,21.92,15.89,49.1,25.11,76.43,25.93"/>
        <path class="cls-8" d="m269.84,207c-20.73-14.48-51.02-27.41-76.43-25.93,21.92,15.89,49.1,25.11,76.43,25.93"/>
        <path class="cls-8" d="m292.69,240.79c-20.73-14.48-51.02-27.41-76.43-25.93,21.92,15.89,49.1,25.11,76.43,25.93"/>
        <path class="cls-4" d="m301.03,253.5c4.33,5.74,7.91,10.33,10.46,13.44,1.24,1.51,2.21,2.7,2.93,3.58.31.37.57.67.78.92.18.2.28.3.29.29s-.06-.13-.22-.35c-.19-.26-.42-.58-.71-.97-.68-.9-1.62-2.13-2.8-3.68-2.46-3.18-5.96-7.82-10.22-13.6-4.28-5.77-9.23-12.75-14.61-20.58-5.34-7.86-11.07-16.58-16.86-25.89-11.55-18.63-21.08-36.05-27.66-48.82-3.29-6.38-5.91-11.58-7.67-15.19-.87-1.74-1.56-3.13-2.07-4.14-.22-.43-.41-.78-.56-1.07-.13-.24-.2-.36-.22-.35-.01,0,.03.14.13.39.13.3.29.66.48,1.1.47,1.03,1.11,2.44,1.92,4.21,1.67,3.66,4.2,8.9,7.42,15.32,6.45,12.85,15.9,30.35,27.47,49"/>
      </g>
      <g>
        <path class="cls-8" d="m467.4,162.71c-4.1-4.87-9.78-7.82-13.74-8.95-3.7-1.06-9.32-2.04-15.05-.67-3.56.85-6.68,2.51-9.28,4.93-3.08,2.87-5.43,6.84-7.01,11.8-.24.74-.16,1.53.21,2.22.37.69.99,1.19,1.75,1.41l9.71,2.79c1.37.39,2.84-.29,3.42-1.59,1.3-2.92,4.58-7.53,11.89-5.57,5.57,1.5,6.7,6.16,6.93,8.09.37,3.15-.88,6.4-3.36,8.69-3.81,3.52-8.75,2.81-11.35,2.07-3-.85-6.13.88-6.98,3.86l-3,10.45c-.44,1.53.45,3.12,1.97,3.56l9.46,2.71c1.53.44,3.12-.45,3.56-1.97l.63-2.2c.02-.05.06-.09.12-.09,2.36-.14,7.04-.76,11.85-3.41,6.14-3.38,10.32-8.82,12.42-16.16,3.01-10.51-.59-17.75-4.15-21.97Z"/>
        <path class="cls-8" d="m437.96,209.92l-.83-.24c-3.96-1.13-8.1,1.16-9.23,5.12-1.14,3.96,1.16,8.1,5.12,9.23l.83.24c3.96,1.14,8.1-1.16,9.23-5.12,1.14-3.96-1.16-8.1-5.12-9.23Z"/>
      </g>
      <g>
        <path class="cls-8" d="m146.93,248.22c-4.72-3.53-10.46-4.99-14.27-5.18-3.56-.18-8.83.12-13.71,2.56-3.03,1.51-5.5,3.67-7.33,6.4-2.17,3.24-3.46,7.31-3.84,12.11-.06.72.18,1.42.65,1.96.48.55,1.14.87,1.87.9l9.34.47c1.32.07,2.5-.86,2.75-2.15.56-2.91,2.55-7.75,9.54-7.52,5.33.18,7.33,4.14,7.95,5.84,1,2.76.55,5.95-1.2,8.54-2.69,3.97-7.3,4.37-9.8,4.25-2.88-.13-5.34,2.09-5.49,4.95l-.51,10.05c-.07,1.47,1.06,2.72,2.53,2.8l9.1.46c1.47.07,2.72-1.06,2.8-2.53l.11-2.11c0-.05.04-.09.09-.11,2.1-.62,6.18-2.17,9.96-5.56,4.82-4.34,7.45-10.12,7.81-17.18.51-10.11-4.26-15.88-8.35-18.94Z"/>
        <path class="cls-8" d="m130.3,296.98l-.8-.04c-3.81-.19-7.06,2.75-7.25,6.56-.19,3.81,2.75,7.06,6.56,7.25l.8.04c3.81.19,7.06-2.75,7.25-6.56.19-3.81-2.75-7.06-6.56-7.25Z"/>
      </g>
      <g>
        <path class="cls-8" d="m98.36,426.25h8.64c5.09-18.12,7.53-38.28,4.2-55.14-7.8,16.9-12.17,35.93-12.84,55.14Z"/>
        <path class="cls-8" d="m96.72,342.17c-10.62,23.02-14.91,49.99-12.1,75.97.1.2.19.41.29.61,9.61-21.96,16.55-52.61,11.81-76.58Z"/>
        <path class="cls-8" d="m73.92,309.78c-7.79,23.73-9.23,50.26-4.15,74.98.31.75.63,1.52.96,2.29,7.03-23.18,10.46-54.37,3.19-77.27Z"/>
        <path class="cls-8" d="m59.07,358.33c-.08-.27-.12-.4-.11-.41.01,0,.08.12.19.37.13.3.28.68.47,1.13.15.39.33.84.52,1.32.34.55.67,1.12,1.03,1.67-.71-24.76-7.44-55.77-21.66-74.04.33,25.48,7.46,50.76,20.08,71.48-.04-.11-.09-.24-.12-.35-.16-.47-.28-.85-.39-1.17Z"/>
        <path class="cls-8" d="m65.03,374.59c-.07-.19-.14-.37-.21-.56-16.84-16.96-42.09-33.62-64.81-35.83,17.62,18.63,40.74,31.55,65.03,36.38Z"/>
        <path class="cls-8" d="m76.82,400.72c-.09-.08-.19-.16-.29-.24.03.07.07.14.1.22.06,0,.13.02.19.02Z"/>
        <path class="cls-8" d="m5.67,369.32c19.64,17.45,44.51,28.53,70.05,31.28-.18-.42-.36-.83-.54-1.24-18.83-15.65-45.97-29.98-69.52-30.04Z"/>
        <path class="cls-8" d="m19.86,400.72c12.86,11.43,27.97,20.11,44.05,25.53h19.76c-18.36-13.79-42.55-25.48-63.81-25.53Z"/>
        <path class="cls-4" d="m67.21,380.16c2.23,5.63,4.91,12.12,7.98,19.2.18.42.36.82.54,1.24,3.47,7.95,7.44,16.63,11.83,25.66h.96c-1.24-2.53-2.44-5.04-3.61-7.5-.1-.2-.19-.41-.29-.61-2.87-6.08-5.54-11.93-7.99-17.44-.03-.07-.07-.15-.1-.22-2.11-4.77-4.05-9.27-5.8-13.44-.33-.77-.65-1.54-.96-2.29-.7-1.68-1.37-3.31-2.01-4.86-2.76-6.77-4.95-12.27-6.42-16.09-.47-1.18-.86-2.19-1.21-3.06-.19-.48-.37-.94-.52-1.32-.19-.45-.34-.83-.47-1.13-.11-.25-.17-.38-.19-.37s.02.14.11.41c.11.32.23.7.39,1.17.04.11.08.24.12.35.37,1.05.86,2.41,1.46,4.1.93,2.63,2.21,6.05,3.78,10.09.07.18.14.37.21.56.68,1.75,1.4,3.6,2.18,5.56Z"/>
      </g>
    </g>
    <g id="Floor">
      <path class="cls-9" d="m453.63,425.86c0,.15-98.68.27-220.38.27s-220.4-.12-220.4-.27,98.66-.27,220.4-.27,220.38.12,220.38.27Z"/>
    </g>
    <g id="Speech_Bubble_2" data-name="Speech Bubble 2">
      <g>
        <g>
          <g>
            <circle class="cls-1" cx="53.19" cy="75.72" r="32.21"/>
            <path class="cls-9" d="m85.4,75.72s-.02-.18-.05-.52c-.02-.36-.06-.87-.1-1.53-.02-.34-.04-.71-.07-1.13-.04-.41-.13-.86-.2-1.35-.08-.49-.16-1.01-.25-1.57-.07-.56-.28-1.14-.42-1.76-.57-2.49-1.73-5.43-3.57-8.54-1.85-3.1-4.52-6.35-8.16-9.1-.46-.34-.92-.68-1.39-1.03-.49-.32-1-.61-1.51-.92-.52-.29-1.01-.65-1.56-.9-.55-.26-1.1-.53-1.66-.8-.28-.13-.56-.27-.85-.4-.29-.11-.59-.21-.89-.32-.6-.22-1.2-.44-1.8-.66-.61-.2-1.25-.33-1.89-.5-.64-.14-1.27-.37-1.94-.44-1.32-.19-2.66-.46-4.05-.47-.69-.02-1.39-.09-2.09-.08-.7.04-1.41.07-2.12.11-.36.03-.71.02-1.07.07l-1.07.16c-.71.12-1.44.2-2.15.35-1.41.38-2.88.67-4.27,1.25-1.44.46-2.79,1.17-4.18,1.83-.68.37-1.32.79-1.99,1.19-.33.21-.68.39-.99.62l-.94.71c-1.3.89-2.44,2.01-3.63,3.09-.54.59-1.08,1.19-1.63,1.79l-.41.45-.37.49-.73.98-.74.99-.65,1.05-.64,1.06-.32.53-.27.56c-.36.75-.72,1.5-1.09,2.26-.29.79-.58,1.58-.87,2.37-1.04,3.21-1.61,6.62-1.65,10.1.05,3.47.61,6.89,1.65,10.1.29.79.58,1.58.87,2.37.36.76.73,1.51,1.09,2.26l.27.56.32.53.64,1.06.64,1.05.74.99.73.98.37.49.41.45c.54.6,1.09,1.2,1.63,1.79,1.19,1.08,2.33,2.19,3.63,3.09l.94.71c.31.24.66.42.99.62.67.4,1.32.82,1.99,1.19,1.39.67,2.74,1.38,4.18,1.84,1.39.58,2.86.87,4.27,1.25.72.15,1.44.23,2.16.35l1.07.16c.36.05.71.04,1.07.07.71.04,1.42.07,2.12.11.7.01,1.4-.06,2.09-.08,1.39,0,2.73-.28,4.05-.47.67-.07,1.3-.29,1.94-.44.63-.17,1.28-.3,1.89-.51.61-.22,1.21-.44,1.8-.66.3-.11.59-.22.89-.32.28-.13.57-.27.85-.4.56-.27,1.11-.54,1.66-.8.56-.25,1.05-.61,1.56-.9.51-.31,1.02-.6,1.51-.92.47-.35.93-.69,1.39-1.03,3.64-2.75,6.31-5.99,8.16-9.1,1.83-3.12,3-6.06,3.57-8.54.14-.62.35-1.19.42-1.76.09-.56.17-1.08.25-1.57.07-.49.16-.93.2-1.35.02-.41.05-.79.07-1.12.04-.66.07-1.17.1-1.53.02-.34.05-.52.05-.52,0,0,0,.18,0,.52-.01.36-.03.87-.06,1.53-.01.34-.03.71-.05,1.13-.04.41-.12.86-.18,1.35-.07.49-.15,1.01-.23,1.58-.06.57-.26,1.14-.4,1.77-.55,2.51-1.69,5.47-3.52,8.62-1.85,3.14-4.52,6.42-8.18,9.21-.46.35-.92.69-1.39,1.05-.49.32-1.01.62-1.52.94-.52.3-1.02.66-1.57.92-.55.27-1.11.54-1.68.81-.28.13-.57.27-.85.41-.3.11-.6.22-.9.33-.6.22-1.21.44-1.82.67-.62.21-1.26.34-1.91.52-.65.15-1.28.38-1.96.45-1.34.19-2.69.47-4.09.48-.7.03-1.4.1-2.11.09-.71-.04-1.42-.07-2.14-.11-.36-.02-.72-.02-1.08-.07l-1.08-.16c-.72-.12-1.46-.2-2.18-.35-1.43-.38-2.91-.67-4.32-1.26-1.45-.46-2.82-1.18-4.23-1.85-.69-.37-1.34-.8-2.02-1.2-.33-.21-.69-.39-1-.63l-.96-.71c-1.32-.9-2.47-2.03-3.68-3.12-.55-.6-1.1-1.21-1.65-1.81l-.42-.46-.37-.49-.74-.99-.75-1-.65-1.07-.65-1.07-.33-.54-.28-.57c-.37-.76-.73-1.52-1.1-2.29-.29-.8-.59-1.6-.88-2.4-1.06-3.25-1.63-6.71-1.67-10.23.05-3.52.62-6.97,1.67-10.22.29-.8.59-1.6.88-2.4.37-.76.74-1.53,1.1-2.29l.28-.57.33-.54.65-1.07.65-1.07.75-1,.74-.99.37-.49.41-.46c.55-.61,1.1-1.21,1.65-1.81,1.21-1.09,2.36-2.22,3.68-3.12l.96-.71c.32-.24.67-.42,1-.63.68-.4,1.33-.83,2.02-1.2,1.41-.67,2.77-1.39,4.23-1.85,1.41-.58,2.89-.87,4.32-1.26.72-.15,1.46-.23,2.18-.35l1.08-.16c.36-.05.72-.04,1.08-.07.72-.04,1.43-.07,2.14-.11.71,0,1.41.06,2.11.09,1.4.01,2.75.29,4.09.48.68.07,1.31.3,1.96.45.64.18,1.29.31,1.91.52.61.22,1.22.45,1.82.67.3.11.6.22.9.33.29.14.57.27.85.41.57.27,1.12.54,1.68.81.56.26,1.05.62,1.57.92.51.32,1.03.61,1.52.94.47.35.94.7,1.39,1.05,3.66,2.79,6.33,6.07,8.18,9.21,1.83,3.15,2.98,6.12,3.52,8.62.14.62.34,1.2.4,1.77.08.56.16,1.09.23,1.58.07.49.15.94.18,1.35.02.42.03.79.05,1.13.03.66.04,1.17.06,1.53,0,.34,0,.52,0,.52Z"/>
          </g>
          <g>
            <path class="cls-6" d="m41.73,70.2h6.12s0-5.14,5.34-5.23c2.77-.05,4.21,1.77,4.79,3.16.68,1.62.47,3.46-.44,4.96-1.04,1.71-3.31,3.27-7.44,2.54v8.98h6.05v-3.26s8.49-2.19,8.49-11.54-8.02-11.03-11.46-11.03c-2.63,0-11.57.64-11.46,11.43Z"/>
            <rect class="cls-6" x="50.1" y="86.94" width="6.14" height="5.74"/>
          </g>
        </g>
        <g>
          <path class="cls-1" d="m86.86,105.86c0,2.71-2.2,4.92-4.92,4.92s-4.92-2.2-4.92-4.92,2.2-4.92,4.92-4.92,4.92,2.2,4.92,4.92Z"/>
          <path class="cls-9" d="m86.86,105.86s-.03-.44-.23-1.18c-.2-.73-.7-1.79-1.8-2.61-1.06-.82-2.81-1.28-4.5-.65-.83.3-1.62.87-2.19,1.65-.58.77-.9,1.76-.91,2.79.01,1.02.33,2.01.91,2.79.56.78,1.36,1.35,2.19,1.65,1.69.63,3.44.17,4.5-.65,1.1-.82,1.6-1.88,1.8-2.61.2-.74.19-1.18.23-1.18.01,0,.02.11.03.32,0,.21-.02.52-.1.9-.16.76-.64,1.9-1.78,2.8-1.1.9-2.97,1.43-4.8.77-.9-.32-1.77-.92-2.38-1.77-.63-.84-.99-1.91-1-3.02,0-1.11.37-2.19,1-3.02.61-.85,1.48-1.45,2.38-1.77,1.83-.66,3.7-.13,4.8.77,1.14.9,1.62,2.04,1.78,2.8.08.39.11.7.1.9,0,.21-.01.32-.02.32Z"/>
        </g>
      </g>
    </g>
    <g id="Speech_Bubble_1" data-name="Speech Bubble 1">
      <g>
        <g>
          <g>
            <circle class="cls-1" cx="411.17" cy="55.72" r="33.84"/>
            <path class="cls-9" d="m445.02,55.72s-.02-.19-.05-.55c-.02-.38-.06-.91-.1-1.61-.02-.35-.04-.75-.07-1.18-.05-.43-.14-.9-.21-1.41-.08-.51-.17-1.06-.26-1.65-.07-.59-.29-1.19-.44-1.85-.6-2.61-1.82-5.7-3.75-8.98-1.95-3.26-4.75-6.67-8.57-9.56-.48-.36-.96-.72-1.46-1.08-.51-.33-1.05-.64-1.58-.97-.54-.31-1.06-.69-1.64-.95-.58-.28-1.16-.56-1.75-.84-.3-.14-.59-.28-.89-.42-.31-.11-.62-.23-.93-.34-.63-.23-1.26-.46-1.89-.69-.64-.21-1.32-.35-1.98-.53-.67-.15-1.34-.39-2.04-.46-1.39-.2-2.8-.48-4.26-.49-.73-.03-1.46-.1-2.19-.08-.74.04-1.48.08-2.23.11-.37.03-.75.02-1.12.07l-1.12.17c-.75.12-1.51.21-2.26.37-1.48.4-3.02.71-4.49,1.32-1.51.48-2.93,1.23-4.39,1.93-.71.39-1.39.83-2.1,1.25-.34.22-.71.41-1.04.66l-.99.74c-1.37.94-2.56,2.11-3.82,3.24-.57.62-1.14,1.25-1.71,1.88l-.43.47-.39.51-.77,1.03-.77,1.04-.68,1.11-.68,1.11-.34.56-.29.59c-.38.79-.76,1.58-1.14,2.37-.3.83-.61,1.66-.91,2.49-1.1,3.38-1.69,6.96-1.74,10.61.05,3.65.64,7.24,1.73,10.61.3.83.61,1.66.91,2.49.38.79.76,1.58,1.14,2.37l.29.59.34.56.68,1.11.68,1.11.77,1.04.77,1.03.39.51.43.47c.57.63,1.14,1.26,1.71,1.88,1.25,1.13,2.45,2.3,3.82,3.24l.99.74c.33.25.7.44,1.04.66.7.42,1.39.87,2.1,1.25,1.46.7,2.88,1.45,4.39,1.93,1.46.61,3,.91,4.49,1.32.75.16,1.52.24,2.26.37l1.12.17c.37.05.75.05,1.12.07.75.04,1.49.08,2.23.12.74.01,1.47-.06,2.19-.09,1.46,0,2.86-.29,4.26-.49.7-.07,1.36-.31,2.04-.46.67-.18,1.34-.32,1.98-.53.64-.23,1.27-.46,1.89-.69.31-.11.62-.23.93-.34.3-.14.59-.28.89-.42.59-.28,1.17-.56,1.75-.84.58-.26,1.1-.64,1.64-.95.53-.33,1.07-.63,1.58-.97.49-.37.98-.73,1.46-1.09,3.82-2.89,6.63-6.3,8.57-9.56,1.93-3.28,3.15-6.36,3.75-8.98.15-.65.37-1.25.44-1.85.09-.59.18-1.14.26-1.65.08-.51.17-.98.21-1.41.03-.43.05-.83.07-1.18.04-.7.08-1.23.1-1.61.03-.36.05-.55.05-.55,0,0,0,.19,0,.55-.01.38-.03.91-.06,1.61-.02.36-.03.75-.05,1.19-.04.43-.12.91-.19,1.42-.08.51-.16,1.07-.24,1.66-.06.6-.28,1.2-.42,1.86-.57,2.63-1.78,5.75-3.7,9.06-1.94,3.3-4.75,6.75-8.59,9.68-.48.36-.97.73-1.47,1.1-.52.34-1.06.65-1.6.99-.55.31-1.07.7-1.65.96-.58.28-1.17.57-1.76.85-.3.14-.6.29-.9.43-.31.12-.63.23-.94.35-.63.23-1.27.47-1.91.7-.65.22-1.33.36-2,.54-.68.16-1.35.4-2.06.47-1.41.2-2.83.5-4.3.51-.73.03-1.47.1-2.22.09-.74-.04-1.5-.07-2.25-.11-.38-.02-.76-.02-1.14-.07l-1.14-.17c-.76-.12-1.53-.21-2.29-.37-1.5-.4-3.06-.71-4.54-1.32-1.53-.49-2.97-1.24-4.44-1.95-.72-.39-1.41-.84-2.12-1.26-.35-.22-.72-.41-1.05-.66l-1-.75c-1.39-.95-2.6-2.14-3.87-3.28-.58-.63-1.15-1.27-1.73-1.9l-.44-.48-.39-.52-.78-1.04-.78-1.05-.69-1.12-.69-1.13-.34-.57-.29-.6c-.38-.8-.77-1.6-1.16-2.4-.31-.84-.62-1.68-.92-2.52-1.11-3.42-1.71-7.05-1.76-10.75.05-3.69.65-7.33,1.76-10.75.31-.84.62-1.68.93-2.52.39-.8.77-1.6,1.16-2.4l.29-.6.34-.57.68-1.13.69-1.12.78-1.05.78-1.04.39-.52.43-.48c.58-.64,1.16-1.27,1.73-1.9,1.27-1.14,2.48-2.33,3.87-3.28l1-.75c.33-.25.7-.44,1.05-.66.71-.42,1.4-.87,2.12-1.26,1.48-.71,2.92-1.46,4.44-1.94,1.48-.61,3.04-.92,4.54-1.32.76-.16,1.53-.24,2.29-.37l1.14-.17c.38-.05.76-.05,1.14-.07.76-.04,1.51-.07,2.25-.11.74-.01,1.48.06,2.22.09,1.47.01,2.89.31,4.3.51.71.07,1.38.32,2.06.47.67.18,1.35.33,2,.54.64.24,1.28.47,1.91.7.32.12.63.23.94.35.3.14.6.29.9.43.59.29,1.18.57,1.76.85.59.27,1.11.65,1.65.96.54.33,1.08.65,1.6.99.49.37.98.74,1.47,1.1,3.84,2.93,6.66,6.38,8.6,9.68,1.92,3.31,3.13,6.43,3.7,9.06.15.66.36,1.26.42,1.86.09.59.17,1.14.24,1.66.07.51.15.99.19,1.42.02.44.04.83.05,1.19.03.7.05,1.23.06,1.61.01.37,0,.55,0,.55Z"/>
          </g>
          <g>
            <path class="cls-6" d="m399.14,49.92h6.43s0-5.4,5.61-5.5c2.91-.05,4.42,1.86,5.04,3.32.71,1.7.5,3.63-.46,5.21-1.09,1.8-3.48,3.43-7.81,2.67v9.44h6.36v-3.43s8.92-2.31,8.92-12.13-8.43-11.59-12.04-11.59c-2.76,0-12.16.67-12.04,12.01Z"/>
            <rect class="cls-6" x="407.93" y="67.51" width="6.45" height="6.03"/>
          </g>
        </g>
        <g>
          <path class="cls-1" d="m379.69,84.88c0,2.85-2.31,5.17-5.17,5.17s-5.17-2.31-5.17-5.17,2.31-5.17,5.17-5.17c2.85,0,5.17,2.31,5.17,5.17Z"/>
          <path class="cls-9" d="m379.69,84.88s-.03-.46-.24-1.24c-.21-.77-.73-1.89-1.89-2.75-1.12-.86-2.95-1.34-4.73-.68-.87.32-1.71.91-2.3,1.74-.61.81-.95,1.85-.96,2.93.01,1.07.35,2.12.96,2.93.59.82,1.42,1.42,2.3,1.74,1.77.66,3.61.18,4.73-.68,1.15-.86,1.68-1.98,1.89-2.75.21-.78.19-1.24.24-1.24.02,0,.02.11.03.33,0,.22-.02.54-.11.95-.17.8-.67,2-1.87,2.95-1.16.95-3.12,1.51-5.05.81-.95-.33-1.86-.97-2.5-1.86-.66-.88-1.04-2.01-1.05-3.18.01-1.17.39-2.3,1.05-3.18.65-.89,1.55-1.53,2.5-1.86,1.93-.69,3.89-.14,5.05.81,1.2.94,1.7,2.14,1.87,2.94.09.41.11.73.11.95,0,.22-.01.33-.03.33Z"/>
        </g>
      </g>
    </g>
    <g id="Character_1" data-name="Character 1">
      <g>
        <g>
          <path class="cls-9" d="m191.57,333.44c-10.79-27.04-18.89-45.82-18.89-45.82l-98.69,15s-17.74,45.48-16.2,66.11c1.54,20.64,8.76,56.97,8.76,56.97h119.43s16.4-65.22,5.6-92.26Z"/>
          <g>
            <g>
              <path class="cls-9" d="m155.95,107.92c.77-7.8,1.94-15.65,4.8-22.95,2.85-7.3,7.53-14.08,14.14-18.31l1.7,1.58c1.17-3.35,4.29-5.94,7.8-6.48s7.26,1,9.38,3.85c3.79-1.02,8.13.53,10.42,3.71s2.37,7.79.2,11.06c3.55.45,6.68,3.24,7.53,6.71s-.63,7.4-3.57,9.44c3.91,3.38,5.47,9.23,3.76,14.1-1.71,4.88-6.58,8.47-11.75,8.66,1.15,4.49-1.19,9.62-5.33,11.7-4.14,2.08-9.66.88-12.57-2.72.36,4.67-3.37,9.09-7.92,10.2-4.55,1.11-9.51-.73-12.82-4.03-3.32-3.3-5.14-7.88-5.85-12.51-.71-4.63-.38-9.35.08-14.01Z"/>
              <g>
                <g>
                  <path class="cls-6" d="m176.95,73.36c4.54,1.47,5.47,5.15,6.41,8.21,2.03,6.59-.25,16.35-3.94,22.18-3.69,5.83-7.74,8.79-14.56,9.78-.22-10.47-.44-20.93-.67-31.4l12.76-8.77Z"/>
                  <g>
                    <path class="cls-9" d="m179.51,91.38c3.1-4.03,2.66-10.35-.96-13.91,1.99-2.5,1.27-6.35-.75-8.82s-5.02-3.89-7.92-5.23c-1.59-7.31-9.79-12.44-17.06-10.69-3.79-5.57-11.85-6.44-18.31-4.56-1.58.46-3.15,1.05-4.8,1.05-1.21,0-2.38-.33-3.58-.5-6.57-.88-13.1,3.74-15.66,9.86-.41.98-.75,2.01-1.4,2.85-.85,1.1-2.15,1.75-3.25,2.6-2.38,1.84-3.9,4.76-4.02,7.76-.11,2.55.71,5.26-.37,7.58-.54,1.16-1.51,2.1-1.93,3.31-1.22,3.51,2.67,7.09,1.95,10.74-.15.74-.48,1.43-.69,2.16-.42,1.49-.28,3.13.39,4.53.52,1.08,1.36,2.06,1.43,3.26.05.91-.35,1.77-.53,2.66-.44,2.17,4.25,10.56,6.12,11.74l56.13.5c4.25-.87,7.71-4.71,8.12-9.03.07-.72.08-1.5.52-2.06.38-.48.99-.71,1.53-1,3.61-1.94,4.05-6.9,3.67-10.99-.05-.57-.11-1.16.03-1.71.21-.81.82-1.44,1.33-2.1Z"/>
                    <path class="cls-3" d="m163.43,91.46c.17-9.93-6.06-21.35-15.93-26.21-6.22-3.06-11.07-3.08-14.34-3.46-7.33-.85-13.24,2.78-13.24,2.78-3.09.73-14.43,11.11-15.02,22.37-.65,12.51-.96,27.82.62,37.14,3.18,18.73,17.59,20.97,17.59,20.97,0-.03-1.34,31.14-1.34,31.14l27.69,22.69,8.46-37.26,5.52-70.16Z"/>
                    <path class="cls-5" d="m123.1,145.05s12.72.68,25.14-6.97c0,0-6.55,13.3-25.35,11.74l.21-4.77Z"/>
                    <path class="cls-3" d="m160.6,109.28c-.01-1.4,1.57-4.71,2.95-4.94,3.68-.61,10.32-.39,10.49,8.97.22,12.79-12.34,9.94-12.7,10.01-2.04.42-.7-9.21-.74-14.04Z"/>
                    <path class="cls-5" d="m164.78,118.59c.06-.04.23.15.6.32.37.16,1.01.27,1.67,0,1.34-.52,2.44-2.68,2.47-4.99.01-1.16-.25-2.27-.68-3.18-.41-.93-1.02-1.57-1.71-1.68-.68-.15-1.15.27-1.3.63-.16.36-.08.62-.15.64-.04.03-.28-.21-.18-.74.05-.26.19-.56.49-.81.3-.26.75-.39,1.23-.35.99.05,1.89.94,2.36,1.94.52,1,.85,2.24.83,3.55-.04,2.58-1.32,5.01-3.16,5.58-.9.25-1.65,0-2.04-.3-.4-.31-.47-.59-.43-.62Z"/>
                    <path class="cls-9" d="m102.15,85.05c.41-4.65,2.26-9.05,4.5-13.14,1.55-2.83,3.34-5.59,5.78-7.71,2.04-1.76,4.47-3.01,6.91-4.17,6.41-3.04,13.56-5.62,20.48-4.06,3.71.84,7.06,2.81,10.31,4.79,2.49,1.52,5,3.07,7.09,5.11,1.83,1.79,3.3,3.91,4.6,6.12,3.1,5.26,5.29,11.14,5.7,17.23.42,6.09,5.03,11.47,1.46,16.42-.28.38-6.63,1.7-7.07,1.88-1.03.41-2.17-.71-2.16-1.82s.77-2.07,1.6-2.82c-1.58-.05-2.67-1.82-2.57-3.4.1-1.58,1.04-2.97,1.98-4.25.12-.17.25-.34.27-.55.07-.54-.54-.87-1.01-1.15-2.28-1.35-2.53-5.1-.46-6.74-3.05-.71-5.03-4.38-3.94-7.32.17-.46.41-.99.18-1.43-.21-.43-.74-.56-1.2-.69-3.38-1-5.65-4.82-4.91-8.26-1.78.09-3.58.18-5.31-.24-1.73-.42-3.4-1.43-4.19-3.02-1.13,2.04-3.36,3.43-5.69,3.56-2.33.12-4.69-1.02-6.03-2.93-2.98.29-6.03-.19-8.78-1.36-.68,2.78-2.87,5.13-5.59,6.01-.53.17-1.13.34-1.39.83-.16.31-.14.69-.12,1.04.09,1.79-1.12,2.55-2.11,4.04s-2.7,3.72-4.42,3.22c.19,3.04-1.44,5.26-4,6.9l.09-2.1Z"/>
                    <path class="cls-2" d="m99.5,82.7s.12-.53.68-1.38c.27-.43.65-.93,1-1.57.35-.64.62-1.45.7-2.4.09-.94,0-2-.08-3.16-.09-1.15-.19-2.44.07-3.8.24-1.35.78-2.75,1.65-4.04.43-.65.95-1.26,1.56-1.82.6-.57,1.3-1.04,2.01-1.52.7-.48,1.41-1,1.93-1.69.53-.7.85-1.55,1.19-2.42.69-1.75,1.71-3.46,3.06-4.97,1.35-1.51,2.99-2.88,4.92-3.86.95-.52,2-.87,3.07-1.18,1.09-.25,2.21-.44,3.36-.41.57,0,1.15.07,1.73.12.57.08,1.14.2,1.71.29,1.13.21,2.28.24,3.42-.03,1.14-.24,2.26-.66,3.44-.96,1.17-.33,2.39-.53,3.62-.67,1.23-.14,2.49-.14,3.75-.07,1.26.09,2.52.32,3.76.66,2.45.73,4.84,2.08,6.48,4.19.16.21.32.42.48.63l-.21-.08c3.86-.93,7.91.08,11.04,2.13,3.15,2.04,5.49,5.21,6.25,8.7l-.1-.13c1.55.72,3.09,1.44,4.51,2.33,1.41.88,2.71,1.94,3.69,3.24.97,1.31,1.56,2.85,1.7,4.4.15,1.55-.24,3.15-1.19,4.34v-.21c1.83,1.82,2.77,4.24,2.99,6.54.22,2.31-.25,4.57-1.28,6.37-.23.46-.55.87-.84,1.27-.31.39-.62.76-.87,1.15-.25.39-.41.82-.45,1.26-.04.44.01.89.05,1.33.15,1.76.12,3.4-.1,4.86-.22,1.45-.63,2.73-1.23,3.71-.58.99-1.32,1.67-1.97,2.09-.66.44-1.24.62-1.56.85-.34.22-.45.4-.46.39,0,0,.1-.19.43-.43.32-.26.9-.45,1.54-.9.64-.43,1.35-1.11,1.9-2.08.57-.97.96-2.23,1.17-3.66.2-1.44.22-3.06.05-4.81-.04-.44-.1-.89-.06-1.37.03-.48.21-.95.47-1.37.26-.42.58-.79.88-1.18.28-.4.59-.79.81-1.24.99-1.76,1.44-3.96,1.21-6.21-.22-2.24-1.15-4.6-2.93-6.34l-.1-.1.09-.11c.89-1.11,1.25-2.62,1.1-4.11-.14-1.49-.71-2.97-1.65-4.22-.95-1.25-2.21-2.28-3.6-3.15-1.39-.87-2.92-1.58-4.47-2.3l-.08-.04-.02-.09c-.74-3.39-3.02-6.47-6.1-8.46-3.05-2-7-2.97-10.74-2.08l-.12.03-.08-.11c-.15-.2-.31-.4-.46-.6-1.57-2.04-3.89-3.36-6.28-4.07-1.21-.34-2.44-.55-3.68-.65-1.24-.07-2.47-.07-3.68.06-1.21.14-2.41.33-3.56.66-1.16.3-2.29.72-3.46.96-.59.12-1.19.2-1.79.2-.6,0-1.19-.08-1.77-.18-.57-.1-1.14-.21-1.7-.3-.56-.05-1.12-.13-1.68-.12-1.12-.03-2.21.16-3.27.39-1.04.3-2.07.64-3,1.15-1.9.95-3.51,2.29-4.84,3.77-1.34,1.48-2.34,3.15-3.03,4.87-.35.86-.68,1.74-1.24,2.48-.56.74-1.3,1.27-2,1.75-.71.48-1.4.94-1.99,1.49-.59.54-1.1,1.14-1.53,1.77-.86,1.26-1.39,2.63-1.64,3.95-.26,1.32-.18,2.59-.1,3.75.08,1.16.16,2.23.05,3.19-.08.96-.38,1.79-.75,2.44-.37.64-.76,1.13-1.04,1.55-.28.42-.47.75-.58.98-.11.23-.15.36-.16.35Z"/>
                    <path class="cls-2" d="m146.8,49.98s-.34-.19-.96-.49c-.62-.29-1.57-.66-2.8-.79-1.22-.14-2.72-.02-4.2.65-1.47.66-2.89,1.87-3.8,3.5-.26.47-.48.97-.62,1.45-.13.48-.15,1,.1,1.35l.32.43-.52-.14c-1.42-.39-2.88-.11-3.95.5-1.09.61-1.78,1.55-2.15,2.39-.38.85-.46,1.6-.48,2.11-.01.51.03.79,0,.8-.01,0-.03-.07-.06-.2-.03-.13-.06-.33-.07-.6-.02-.52.03-1.31.39-2.21.36-.89,1.06-1.9,2.21-2.57,1.13-.67,2.68-.99,4.21-.58l-.2.29c-.36-.5-.31-1.14-.17-1.67.15-.54.38-1.04.66-1.54.95-1.71,2.45-2.96,3.99-3.63,1.56-.68,3.13-.77,4.38-.59,1.26.17,2.22.59,2.83.93.31.17.54.32.68.44.15.11.22.17.21.18Z"/>
                    <path class="cls-2" d="m167.67,64.5s-.13.19-.44.46c-.31.27-.78.65-1.44,1.02-.66.36-1.52.72-2.55.79-1.01.07-2.22-.15-3.18-.94l.28-.04c-.12.17-.24.35-.37.53-.13.17-.29.34-.43.51-.93.98-2.07,1.66-3.18,2.01-1.11.37-2.17.47-3.05.41-.88-.06-1.56-.27-2.02-.44-.45-.19-.68-.33-.67-.35.03-.08.99.46,2.7.52.85.03,1.86-.1,2.92-.47,1.05-.36,2.13-1.01,3.02-1.94.14-.16.28-.32.41-.48.12-.17.24-.33.35-.5l.12-.18.16.13c.86.71,1.97.94,2.92.89.96-.04,1.8-.35,2.45-.67,1.3-.67,1.96-1.31,2-1.25Z"/>
                    <path class="cls-2" d="m174.53,76.32s0,.08-.03.24c-.04.15-.12.37-.28.62-.31.5-1.01,1.12-2.05,1.39-1.05.28-2.36.08-3.66-.37-.65-.23-1.33-.46-2.03-.78-.68-.32-1.41-.79-1.78-1.6-.03-.07-.06-.14-.08-.21l.3.09c-1.22.97-2.49,1.82-3.78,2.31-1.28.51-2.57.6-3.59.4-1.03-.18-1.79-.61-2.22-.99-.22-.18-.38-.35-.47-.47s-.13-.19-.12-.19c.03-.02.23.22.68.55.45.33,1.19.7,2.18.84.98.15,2.19.04,3.42-.46,1.23-.49,2.45-1.32,3.67-2.28l.2-.16.1.25c.02.05.04.11.07.17.3.66.95,1.1,1.59,1.41.65.31,1.34.55,1.98.79,1.27.46,2.5.67,3.48.44.99-.22,1.66-.76,1.99-1.21.34-.45.39-.79.43-.77Z"/>
                  </g>
                </g>
                <path class="cls-9" d="m133.22,102.3c-.08,1.25.9,2.35,2.2,2.46,1.3.11,2.42-.81,2.51-2.05.08-1.25-.9-2.35-2.2-2.46-1.3-.11-2.43.81-2.51,2.05Z"/>
                <path class="cls-9" d="m110.29,101.67c-.08,1.25.9,2.35,2.2,2.46,1.3.11,2.42-.81,2.51-2.05.08-1.25-.9-2.35-2.2-2.46-1.3-.11-2.43.81-2.51,2.06Z"/>
                <path class="cls-9" d="m109.35,93.82c.28.32,2.12-.95,4.66-.86,2.54.05,4.37,1.42,4.66,1.12.14-.13-.14-.7-.93-1.32-.78-.62-2.13-1.23-3.72-1.28-1.59-.04-2.94.5-3.72,1.07-.8.57-1.08,1.12-.94,1.27Z"/>
                <path class="cls-9" d="m134.67,95.09c.32.29,2.01-1.16,4.55-1.34,2.54-.21,4.49.96,4.75.63.12-.15-.21-.68-1.07-1.22-.84-.53-2.24-1.01-3.83-.89-1.58.12-2.87.8-3.6,1.45-.74.65-.96,1.23-.81,1.36Z"/>
                <path class="cls-9" d="m125.18,114.2c.02-.14-1.56-.47-4.11-.88-.65-.09-1.26-.24-1.35-.68-.14-.48.16-1.17.5-1.91.66-1.55,1.35-3.18,2.08-4.89,2.9-6.96,5.01-12.7,4.73-12.81s-2.86,5.44-5.75,12.4c-.7,1.72-1.37,3.35-2,4.92-.27.73-.72,1.56-.42,2.54.16.49.62.86,1.04.99.41.14.78.16,1.1.19,2.58.22,4.18.29,4.19.14Z"/>
                <path class="cls-5" d="m129.12,117.98c.95.13,1.91.63,2.46,1.43.56.8.96,2.67.41,3.39-.47.62-2.57.62-4.02.43-.67-.08-1.23-.55-1.45-1.19l-.57-1.64c-.32-.93.16-1.99,1.11-2.28.64-.2,1.36-.24,2.07-.14Z"/>
                <path class="cls-9" d="m133.51,85.79c.38.63,2.81-.18,5.81-.4,3-.28,5.53.12,5.8-.57.12-.33-.42-.88-1.51-1.36-1.08-.47-2.71-.8-4.51-.65-1.8.15-3.36.74-4.34,1.39-.99.64-1.43,1.28-1.26,1.59Z"/>
                <path class="cls-9" d="m109.98,89.64c.53.56,2.55-.09,4.99-.18,2.44-.17,4.52.27,4.98-.35.2-.3-.14-.87-1.06-1.39-.91-.52-2.41-.93-4.09-.84-1.68.09-3.12.65-3.95,1.27-.85.62-1.11,1.22-.88,1.5Z"/>
              </g>
            </g>
            <g>
              <path class="cls-2" d="m197.71,195.37l-24.02,87.13,8.43,24.97c-31.72,13.98-77.57,18.42-113.72.91,0,0,12.28-36.02,12.69-43.04s-2.6-47.98.74-61.71c3.34-13.74,12.91-43.18,12.91-43.18l28.13-4.47c12.9,6.93,21.16,7.96,35.03-.07l26.21,5.72,13.59,33.74Z"/>
              <path class="cls-2" d="m95.17,160.39s-15.11,1.6-21.19,14.03c-6.01,12.28-22.69,66.61-23.6,75.69-.91,9.08,6.46,21.3,12.88,22.98l19.47-19.41,16.15,1.44,21.26-99.22-24.97,4.49Z"/>
              <g class="cls-7">
                <path d="m83.76,193.77c-4.7,12.19-6.03,25.65-3.8,38.52-3.55-1.32-7.09-2.65-10.64-3.97,2.9,4,6.71,7.34,11.05,9.7-2.87-.83-5.81-1.67-8.79-1.47-2.98.2-6.06,1.63-7.4,4.3,3.48-.64,7.02-1.27,10.53-.86s7.05,2.03,8.94,5.02c-2.62-11.32-3.63-23.01-2.99-34.61"/>
              </g>
            </g>
            <g>
              <g class="cls-7">
                <path d="m79.35,268.49l79.29,7.86c-5.71-.12-10.11,4.72-15.06,7.58-9.16,5.3-20.57,3.82-31.03,2.17-8.66-1.36-17.33-2.73-25.99-4.09-2.19-.34-4.51-.76-6.13-2.27-2.89-2.72-2.1-7.41-1.08-11.25Z"/>
              </g>
              <path class="cls-3" d="m139.91,261.98l13.28-12.82c1.29-1.24,3.05-1.86,4.84-1.7,3.79.36,10.21,1.02,11.53,1.54,1.9.74,3.69,1.79,4.22,2.74.53.95,2.32,6.65,2.43,7.49.05.41-.07,1.59-.21,2.7-.17,1.31-1.61,2.08-2.76,1.43-.52-.29-.99-.68-1.25-1.18-.84-1.58-.74-2.22-.74-2.22,0,0,.42,5.7-4.22,5.8,0,0,2.14,4.85-3.84,6.86,0,0,.22,3.17-4.78,3.59s-9.53,0-9.53,0c0,0-9.13,6.56-15.57,6.98-6.43.42-20.84-2.39-20.84-2.39l-1.74-26.54,29.19,7.7Z"/>
              <path class="cls-5" d="m157.9,253.84s.79.39,2.13.89c1.33.5,3.19,1.16,5.29,1.72,1.04.3,2.09.46,2.97.7.89.24,1.42.9,1.81,1.48.39.59.69,1.09.96,1.39.26.31.45.44.46.42.02-.02-.13-.18-.35-.51-.23-.32-.49-.83-.86-1.44-.19-.31-.41-.64-.72-.95-.31-.31-.73-.56-1.2-.71-.93-.27-1.93-.44-2.98-.73-2.09-.55-3.95-1.18-5.3-1.62-1.35-.44-2.19-.7-2.21-.65Z"/>
              <path class="cls-5" d="m156.19,261.98s.55.31,1.48.68c.93.38,2.23.86,3.68,1.34,1.45.49,2.78.88,3.75,1.14.97.26,1.58.39,1.59.34.01-.05-.57-.26-1.52-.58-1.08-.36-2.33-.78-3.71-1.24-1.38-.46-2.63-.88-3.71-1.24-.95-.31-1.55-.49-1.57-.45Z"/>
              <path class="cls-5" d="m152.9,269.54c-.01.11,2.31.35,5.07,1.1,2.77.74,4.9,1.7,4.94,1.6.02-.04-.49-.33-1.35-.72-.87-.39-2.1-.85-3.49-1.23-1.4-.38-2.69-.6-3.63-.7-.94-.1-1.53-.1-1.53-.06Z"/>
              <path class="cls-2" d="m122.15,282.49l-58.9-9.4s7.08-29.54,17.4-29.54c1.51,0,53.83,17,53.83,17l-12.33,21.95Z"/>
              <path class="cls-5" d="m132.46,269.63s.55-.46,1.38-1.26c.91-.89,2.01-1.97,3.22-3.16,1.25-1.24,2.37-2.39,3.15-3.24.78-.85,1.24-1.41,1.2-1.44-.04-.03-.55.46-1.38,1.26-.91.89-2.01,1.97-3.22,3.16-1.25,1.24-2.37,2.39-3.15,3.24-.78.85-1.24,1.41-1.2,1.44Z"/>
            </g>
            <path class="cls-9" d="m134.49,260.55s-.27-.02-.75-.14c-.58-.15-1.27-.34-2.1-.56-1.94-.56-4.53-1.3-7.68-2.21-6.47-1.9-15.39-4.58-25.23-7.59-5.45-1.68-10.61-3.27-15.19-4.69l-.12-.04-.09-.12c-1.81-2.43-4.47-3.91-6.86-4.64-2.44-.74-4.72-.83-6.57-.67-1.85.15-3.28.56-4.24.85-.96.31-1.46.53-1.48.49-.02-.04.45-.33,1.39-.72.95-.37,2.38-.85,4.28-1.07,1.88-.24,4.24-.21,6.79.52,2.53.73,5.3,2.17,7.32,4.83l-.21-.16c4.59,1.39,9.76,2.96,15.21,4.61,9.84,3.01,18.73,5.78,25.15,7.83,3.11,1.01,5.67,1.84,7.6,2.46.81.28,1.49.52,2.05.71.47.17.71.27.7.3Z"/>
          </g>
          <g>
            <g>
              <path class="cls-3" d="m118.88,166.11c.49-1.64,3.26-16.77,4.38-20.29,1.59-4.96,14.49-13.84,14.49-13.84,0,0-2.02-4.66-7.52-2.24-6.5,2.87-9.72,7.7-11.36,6.71s-11.85-11.38-14.64-11.05c-2.79.33-3.4,3.18-2.41,4.33s2.09,3.04,2.09,3.04c0,0-5.9-1.77-4.75,4.68,0,0-6.72-4.19-6.06,4.65,0,0-4.42-1.8-5.41,1.31s1.93,6.72,3.41,9.18c1.47,2.46,6.26,16.71,6.26,16.71l.06,12.57,23.49-4.83-2.02-10.93Z"/>
              <path class="cls-5" d="m118.88,166.11s.08.25.18.72c.11.52.26,1.22.44,2.11.38,1.9.91,4.61,1.59,8.07l.04.19-.19.04c-5.8,1.23-13.82,2.92-23.46,4.95l-.39.08v-.4c-.03-3.87-.06-8.1-.1-12.57l.02.11c-1.68-4.83-3.42-10.03-5.61-15.29-1.07-2.53-3.3-4.74-4.1-7.8-.2-.76-.29-1.58-.16-2.4.12-.79.5-1.69,1.27-2.19.75-.5,1.65-.61,2.46-.55.82.06,1.6.24,2.38.53l-.57.42c-.03-.86-.07-1.74.06-2.65.16-.88.36-1.87,1.12-2.61.74-.78,1.9-.95,2.84-.78.97.16,1.84.5,2.68.99l-.64.43c-.16-1.19-.36-2.63.44-3.93.5-.82,1.43-1.29,2.29-1.41.88-.13,1.72-.04,2.56.18l-.49.62c-.59-.99-1.22-1.97-1.92-2.84-.45-.45-.69-1.24-.65-1.88.03-.66.26-1.3.64-1.84.38-.54.92-.95,1.52-1.18.3-.11.61-.2.92-.24.3-.04.72,0,1.02.09,1.21.39,2.13,1.07,3.06,1.72,3.66,2.68,6.8,5.75,9.97,8.52.38.31.84.75,1.12.82.28.09.76-.13,1.16-.37.84-.52,1.63-1.19,2.44-1.81,1.6-1.27,3.26-2.46,5-3.44,1.73-.91,3.55-1.92,5.6-1.84,2.06.04,3.83,1.41,4.65,3.14l.12.25-.24.17c-5.03,3.57-9.55,7.09-12.74,10.88-.8.95-1.42,1.96-1.77,3.02-.33,1.1-.58,2.2-.83,3.25-.46,2.1-.89,4.04-1.27,5.79-.74,3.45-1.32,6.17-1.73,8.09-.21.93-.37,1.64-.5,2.11-.12.48-.22.71-.22.71-.02,0,.04-.25.12-.73.1-.53.23-1.24.4-2.13.37-1.93.88-4.66,1.54-8.13.36-1.76.76-3.7,1.19-5.81.23-1.06.47-2.16.8-3.29.36-1.16,1.03-2.25,1.83-3.22,3.24-3.91,7.74-7.46,12.79-11.1l-.12.42c-.72-1.48-2.27-2.68-4.04-2.7-1.77-.08-3.51.86-5.2,1.77-1.69.96-3.29,2.12-4.88,3.4-.81.63-1.59,1.3-2.52,1.88-.47.25-1,.62-1.77.46-.72-.27-.99-.65-1.44-.99-3.2-2.79-6.34-5.84-9.93-8.45-.89-.63-1.84-1.28-2.81-1.59-.24-.05-.41-.09-.66-.06-.25.03-.5.11-.73.19-.46.18-.87.49-1.15.9-.57.79-.71,1.99-.02,2.69.76.94,1.39,1.92,2,2.95l.53.89-1.02-.27c-1.37-.37-3.17-.33-3.89.87-.6.92-.48,2.24-.32,3.33l.13.88-.77-.45c-.72-.42-1.56-.75-2.36-.88-.81-.13-1.62,0-2.12.54-1.04,1.12-1.01,3.01-.94,4.6l.03.64-.6-.22c-1.32-.48-2.98-.77-4.05-.07-.54.34-.81.96-.93,1.64-.11.68-.04,1.38.14,2.06.36,1.37,1.08,2.65,1.84,3.88.75,1.22,1.65,2.43,2.2,3.81,2.2,5.33,3.91,10.51,5.57,15.37l.02.05v.06c0,4.46.01,8.7.02,12.57l-.39-.32c9.66-1.93,17.7-3.54,23.51-4.7l-.15.23c-.6-3.49-1.08-6.22-1.41-8.14-.14-.89-.26-1.59-.34-2.11-.07-.48-.1-.72-.08-.72Z"/>
            </g>
            <path class="cls-5" d="m103.94,132.94c-.06.08,1.26,1.21,2.85,2.66,1.59,1.44,2.84,2.66,2.92,2.59.07-.07-1.08-1.4-2.68-2.85-1.6-1.46-3.03-2.47-3.09-2.4Z"/>
            <path class="cls-5" d="m98.69,137.1c-.08.04.42,1.31,1.45,2.62,1.02,1.32,2.13,2.13,2.18,2.05.07-.08-.91-.98-1.9-2.27-1-1.28-1.64-2.45-1.73-2.41Z"/>
            <path class="cls-5" d="m93.2,141.79c-.08.06.47.96,1.23,2.01.76,1.05,1.44,1.86,1.52,1.81.08-.06-.47-.96-1.23-2.01-.76-1.06-1.44-1.86-1.52-1.81Z"/>
          </g>
          <path class="cls-2" d="m184.12,161.62l-25.26,25.2-25.92,32.56-10.31-43.39-26.33,5.41s1.86,49.01,9.96,71.22c1.54,4.23,6.11,7.37,8.14,8.34,12.73,6.05,25.16-3.31,25.16-3.31,0,0,53.11-35.65,58.87-59.51,2.72-11.27,1.63-24.67-3-30.18-4.07-4.85-11.31-6.35-11.31-6.35Z"/>
          <path class="cls-9" d="m198.44,198.15s-.06.26-.2.77c-.17.5-.3,1.29-.71,2.23-.67,1.95-2.04,4.69-4.17,7.97-2.14,3.28-5.09,7.07-8.84,11.17-3.76,4.09-8.27,8.54-13.51,13.18-5.22,4.65-11.15,9.51-17.69,14.5-3.27,2.49-6.69,5.02-10.27,7.55-.9.63-1.8,1.26-2.72,1.89-.9.62-1.85,1.28-2.83,1.83-1.97,1.12-4.08,2.05-6.31,2.75-4.42,1.43-9.42,1.72-14.11.27-.6-.14-1.15-.43-1.72-.64-.57-.23-1.15-.44-1.69-.76-1.09-.6-2.1-1.33-3.07-2.12-1.9-1.6-3.63-3.56-4.56-5.98-1.68-4.77-2.89-9.76-3.95-14.85-.97-5.11-1.86-10.31-2.54-15.6-1.86-14.12-2.91-27.88-3.51-40.9v-.21s.2-.04.2-.04c9.19-1.88,18-3.69,26.34-5.4l.22-.05.05.22c3.89,16.48,7.36,31.15,10.25,43.4l-.3-.08c8.9-9.57,16.03-17.25,20.96-22.55,2.46-2.63,4.37-4.67,5.67-6.06.64-.68,1.13-1.2,1.48-1.56.34-.35.51-.52.51-.52,0,0-.15.19-.48.55-.33.37-.81.9-1.44,1.6-1.29,1.41-3.17,3.47-5.6,6.12-4.9,5.33-12,13.04-20.84,22.66l-.23.25-.08-.33c-2.92-12.24-6.43-26.9-10.36-43.37l.27.18c-8.34,1.72-17.14,3.54-26.33,5.43l.2-.26c.61,13.01,1.67,26.76,3.52,40.85.67,5.29,1.56,10.47,2.53,15.57,1.06,5.07,2.26,10.05,3.92,14.77.88,2.3,2.55,4.21,4.4,5.77.94.77,1.93,1.48,2.98,2.07.51.3,1.09.5,1.64.73.56.2,1.1.49,1.68.63,4.58,1.42,9.47,1.15,13.82-.25,2.19-.68,4.27-1.6,6.22-2.7.98-.55,1.87-1.17,2.8-1.81.91-.63,1.82-1.26,2.71-1.88,3.58-2.52,7-5.03,10.27-7.52,6.54-4.97,12.48-9.8,17.71-14.43,5.25-4.61,9.76-9.04,13.54-13.1,3.76-4.08,6.72-7.84,8.88-11.09,2.14-3.26,3.54-5.97,4.24-7.9.43-.94.57-1.71.76-2.21.16-.5.26-.76.26-.76Z"/>
          <path class="cls-9" d="m137.74,239.31c-.09-.02.22-1.27.38-3.33.1-1.03.08-2.26.01-3.61-.11-1.36-.34-2.84-.73-4.36-.78-3.05-2.09-5.61-3.15-7.38-1.07-1.76-1.87-2.78-1.8-2.83.03-.02.25.21.63.65.39.44.89,1.12,1.48,1.98,1.15,1.74,2.54,4.33,3.34,7.44.4,1.55.62,3.07.7,4.46.05,1.39.02,2.64-.12,3.68-.12,1.04-.29,1.87-.45,2.43-.15.57-.26.87-.29.86Z"/>
          <path class="cls-9" d="m134.14,121.28c-.05.14-.59.08-1.42-.09-.83-.16-1.95-.42-3.18-.51-1.24-.1-2.35-.01-3.11.19-.78.18-1.11.5-1.24.45-.06-.03-.06-.2.1-.43.15-.23.46-.49.87-.7.83-.43,2.11-.65,3.46-.54,1.36.11,2.53.5,3.32.85.8.36,1.24.66,1.2.79Z"/>
        </g>
        <g class="cls-7">
          <path d="m174.27,281.94s-11.56-1.42-17.78-2.38c-3.4-.53-8.58-1.07-9.56-2.02-1.22-1.18-1.21-3.14-1.34-4.84-2.21-28.85,7.71-60.05,38.37-78.66l7.82,2.06-.51,18.79-17,67.05Z"/>
        </g>
      </g>
    </g>
    <g id="Character_2" data-name="Character 2">
      <g>
        <g>
          <g>
            <path class="cls-9" d="m354.99,57.12c3.92.35,7.87-2.62,8.61-6.49.74-3.87-1.82-8.09-5.59-9.22,2.37-2.55,2.88-6.66,1.21-9.71s-5.41-4.83-8.84-4.2c-.23-3.43-2.36-6.68-5.42-8.25-3.06-1.57-6.94-1.4-9.86.42-3.88-3.17-10.01-3.14-13.86.06-3.36-.54-6.95,1.33-8.45,4.38-1.49,3.05-.76,7.04,1.72,9.36"/>
            <g>
              <g>
                <path class="cls-3" d="m319.7,27.7l1.77-.04c17.77-.41,32.88,12.88,34.71,30.56,1.71,16.44,3.39,34.63,3.49,43.47.2,18.3-18.03,21.57-18.03,21.57l2.06,21.95-44.44-.34-5.79-79.63c-2.08-18.96,7.22-35.98,26.23-37.53Z"/>
                <path class="cls-5" d="m341.66,123.25s-12.76.95-25.23-6.48c0,0,7.43,13.34,25.65,11.26l-.42-4.78Z"/>
                <path class="cls-9" d="m350.59,78.08c.08,1.38-1.02,2.58-2.46,2.69-1.43.11-2.67-.91-2.75-2.29s1.02-2.58,2.45-2.7c1.44-.11,2.67.92,2.75,2.29Z"/>
                <path class="cls-9" d="m352.46,67.26c-.32.35-2.33-1.07-5.14-1-2.81.03-4.84,1.53-5.15,1.19-.15-.15.16-.77,1.05-1.45.87-.67,2.36-1.34,4.11-1.37,1.75-.03,3.24.58,4.1,1.22.88.64,1.19,1.25,1.03,1.41Z"/>
                <path class="cls-9" d="m326.38,78.08c.08,1.38-1.02,2.58-2.46,2.69-1.43.11-2.67-.91-2.75-2.29-.08-1.38,1.02-2.58,2.46-2.7,1.44-.11,2.67.92,2.75,2.29Z"/>
                <path class="cls-9" d="m324.83,68.43c-.32.35-2.33-1.07-5.14-1-2.81.03-4.84,1.53-5.15,1.19-.15-.15.16-.77,1.05-1.45.87-.67,2.36-1.34,4.11-1.37,1.75-.03,3.24.58,4.1,1.22.88.64,1.19,1.25,1.03,1.41Z"/>
                <path class="cls-9" d="m335.52,89.04c-.02-.16,1.72-.5,4.55-.93.72-.09,1.39-.25,1.5-.74.16-.52-.16-1.29-.53-2.12-.71-1.72-1.46-3.53-2.25-5.42-3.13-7.72-5.41-14.07-5.1-14.19.31-.12,3.1,6.03,6.23,13.75.76,1.9,1.48,3.72,2.16,5.45.29.81.78,1.73.44,2.81-.18.54-.7.94-1.16,1.08-.46.15-.86.17-1.21.2-2.85.22-4.61.27-4.63.12Z"/>
                <path class="cls-9" d="m325.42,62.62c-.35.72-2.78,0-5.75-.02-2.97-.09-5.45.52-5.74-.21-.12-.35.39-1,1.44-1.6,1.05-.6,2.65-1.07,4.43-1.04,1.78.04,3.34.58,4.33,1.22,1,.64,1.45,1.31,1.29,1.65Z"/>
                <path class="cls-9" d="m352.32,55.66c-.58.65-2.91.04-5.7.08-2.79-.05-5.14.55-5.7-.11-.25-.32.11-.97,1.13-1.6,1-.63,2.69-1.16,4.61-1.15,1.92,0,3.59.55,4.58,1.18,1,.63,1.34,1.28,1.09,1.6Z"/>
                <path class="cls-9" d="m354.22,49.87s-5.09-11.35-10.68-13.89c-6.76-3.08-9.47,4.33-15.89,2.69-6.42-1.63-12.87-4.59-19.27.49-7.01,5.56-3.58,9.27-3.83,17.39-1.02,32.96-6.81,42.4-8.88,26.94-.23-1.69-4.97-2.93-5.84-10.1-1.12-9.29-1.74-20.57.18-27.23,1.62-5.61,4.7-9.53,10.3-13.9,8.83-6.9,21.16-7.33,29.56-6.69,8.4.65,24.78,9.92,24.35,24.28Z"/>
                <path class="cls-3" d="m296.82,82.97c-.18-2.82-2.67-4.99-5.47-4.66-3.4.4-7.16,2.43-6.77,9.48.69,12.5,13.1,9.23,13.1,8.87,0-.24-.52-8.45-.86-13.68Z"/>
                <path class="cls-5" d="m294.7,92.1c-.06-.04-.21.16-.57.35-.35.18-.96.33-1.63.12-1.35-.41-2.58-2.45-2.76-4.7-.1-1.13.08-2.23.44-3.15.33-.94.89-1.61,1.55-1.76.65-.19,1.15.18,1.32.52.19.34.12.59.19.61.04.03.26-.23.13-.74-.07-.24-.23-.53-.54-.76-.31-.23-.76-.33-1.22-.25-.96.12-1.78,1.05-2.17,2.06-.44,1.02-.67,2.25-.56,3.52.22,2.51,1.64,4.8,3.48,5.22.89.18,1.61-.12,1.97-.44.37-.33.42-.61.37-.63Z"/>
              </g>
              <path class="cls-9" d="m296.5,58.73c1.65,1.07,3.39,2.17,5.36,2.32,1.96.15,4.17-1.03,4.46-2.97.13-.88-.11-1.88.45-2.57.66-.82,1.93-.6,2.98-.51,3.65.3,7.8-3.82,8.64-7.38.96,1.37,3,1.74,4.38.8,1.38-.94,1.88-1.47,2.95-2.75,1.07-1.28,2.58-2.44,4.24-2.25.93.11,1.81.64,2.73.54,1.64-.18,2.4-2.13,2.61-3.76.21-1.64.36-3.54,1.73-4.46,1.27-.85,2.95-.42,4.47-.23,1.52.19,3.46-.21,3.81-1.7.18-.78-.17-1.59-.61-2.26-2.02-3.02-6.3-4.28-9.64-2.84-1.32-4.11-5.26-7.23-9.56-7.58-4.3-.35-8.7,2.09-10.67,5.93-2.7-2.34-6.57-3.25-10.03-2.38s-6.43,3.52-7.69,6.86c-3.06-.73-6.5.53-8.37,3.06-1.87,2.53-2.06,6.19-.46,8.9-2.22,1.34-4.09,3.62-4.08,6.21.01,2.59,2.6,5.11,5.08,4.37-.96,2.04-.08,4.76,1.9,5.84,1.98,1.08,4.74.36,5.94-1.56"/>
              <path class="cls-2" d="m336.1,32.37s.01.08,0,.23c-.01.15-.02.38-.06.67-.1.58-.31,1.44-.85,2.43-.54.98-1.39,2.11-2.7,3.02-1.29.92-3.06,1.64-5.09,1.58l.2-.28c.41,1.06.34,2.35-.17,3.46-.48,1.13-1.25,2.14-2.07,3.13-.42.47-.78,1.03-1.37,1.47-.57.42-1.26.68-1.96.78-1.41.21-3.01-.19-4.06-1.35l.46-.14c-.26,2.49-1.62,5.01-3.83,6.58-1.17.89-2.63,1.45-4.08,1.44-1.45.02-2.8-.37-4.07-.79l.33-.15c-.64,1.57-1.64,2.92-2.87,3.93-1.21,1.01-2.84,1.62-4.33,1.29-2.97-.56-4.98-2.97-5.43-5.27l.29.12c-1.45.83-3.02.95-4.28.73-1.28-.2-2.3-.74-3.03-1.27-.73-.54-1.17-1.11-1.43-1.5-.24-.41-.35-.63-.33-.64.06-.05.44.94,1.89,1.96.72.49,1.72.97,2.95,1.14,1.22.18,2.71.04,4.04-.76l.23-.14.06.26c.45,2.15,2.39,4.39,5.14,4.88,1.35.28,2.78-.26,3.93-1.21,1.15-.95,2.11-2.25,2.7-3.73l.09-.23.24.08c1.24.41,2.55.78,3.89.76,1.34,0,2.65-.5,3.76-1.34,2.09-1.49,3.36-3.84,3.62-6.21l.07-.59.4.45c.89,1,2.32,1.38,3.59,1.19.63-.09,1.24-.31,1.74-.68.48-.35.86-.9,1.29-1.38.82-.97,1.57-1.94,2.02-2.99.48-1.04.55-2.17.2-3.13l-.11-.3h.32c1.91.1,3.62-.56,4.88-1.42,1.28-.86,2.13-1.93,2.69-2.86,1.09-1.92,1.03-3.24,1.12-3.22Z"/>
            </g>
          </g>
          <path class="cls-3" d="m246.12,143.24s-47.02,16.56-60.62,23.4c-10.63,5.34-17.36,24.73-1.01,32.81,12.19,6.03,78.2-5.49,78.2-5.49l-16.57-50.73Z"/>
          <g>
            <path class="cls-9" d="m389.67,307.88l-119.47-4.52-4.33,40.67-4.79,81.58,60.99.26c.02-.35,7.61-45.86,7.61-45.86l3.45-.9-.32,46.76h57.16c3-38.7,4.72-71.2,4.82-74.25.83-24.17-5.12-43.73-5.12-43.73Z"/>
            <path class="cls-2" d="m325.37,354.66c-.02.05.62.39,1.82.92,1.2.51,2.97,1.28,5.34,1.62,1.18.16,2.52.17,3.92-.14,1.38-.31,2.85-.96,4.01-2.14,1.16-1.18,1.87-2.79,2.3-4.44.43-1.67.64-3.4.92-5.16,1.06-7.05,1.7-13.48,2.04-18.14.17-2.33.27-4.22.31-5.52.04-1.31.03-2.03-.03-2.03-.06,0-.17.71-.32,2.01-.16,1.49-.36,3.32-.59,5.49-.5,4.64-1.24,11.03-2.3,18.07-.54,3.48-.86,7.01-2.92,9.16-2.07,2.11-5.05,2.45-7.25,2.22-2.27-.24-4.05-.91-5.29-1.31-1.23-.43-1.92-.66-1.94-.6Z"/>
            <path class="cls-2" d="m336.77,321.24s-.29-.21-.88-.22c-.59-.02-1.48.2-2.34.86-.82.66-1.68,1.82-1.65,3.36,0,1.55,1.27,3.03,2.88,3.53,1.59.55,3.49.11,4.41-1.15.93-1.22.93-2.66.65-3.68-.3-1.05-.89-1.75-1.38-2.08-.49-.35-.83-.38-.84-.34-.11.12,1.23.66,1.6,2.57.17.9.07,2.11-.68,3.02-.72.92-2.17,1.25-3.48.81-1.32-.43-2.29-1.55-2.33-2.71-.07-1.17.57-2.21,1.23-2.83,1.43-1.32,2.83-.97,2.82-1.13Z"/>
            <path class="cls-2" d="m270.19,341.58c0,.06.52.12,1.46.16.94.06,2.31.03,3.99-.12,3.36-.29,7.98-1.3,12.67-3.51,4.68-2.22,8.4-5.15,10.76-7.55,1.18-1.2,2.08-2.23,2.63-3,.56-.76.85-1.19.8-1.23-.12-.1-1.42,1.52-3.87,3.77-2.43,2.25-6.13,5.03-10.7,7.2-4.58,2.15-9.07,3.24-12.36,3.69-3.29.46-5.37.43-5.37.59Z"/>
          </g>
          <g>
            <path class="cls-2" d="m392.08,301.25c-2.34-5.34-1.91-5.83-1.91-5.83l-6.64-58.13-6.38-56.55-5.17-41.85-29.89-6.4s-3.44,9.53-17.89,9.82c-16.64.33-26.18-14.55-26.18-14.55l-47.79,10.26,17.97,123.26,2.15,33.2s-3.57,5.37-3.57,11.14-.23,9.6-.23,9.6c44.36,12.19,88.38,22.74,128.88,10.94,0,0-1.01-19.58-3.35-24.92Z"/>
            <path class="cls-2" d="m361.07,136.71s17.23,1.92,23.34,8.41,25.65,38.59,25.65,38.59l-28.38,38.82-13.15-17.94-7.46-67.88Z"/>
            <path class="cls-9" d="m374.2,156.8c.24-.02,2.95,21.31,6.06,47.65,3.11,26.35,5.44,47.72,5.2,47.74-.24.02-2.95-21.31-6.06-47.66-3.11-26.34-5.44-47.71-5.2-47.74Z"/>
          </g>
          <polygon class="cls-2" points="250.22 138.02 211.96 155.01 225.81 193.74 262.69 199.58 250.22 138.02"/>
          <path class="cls-9" d="m255.49,163.7c.26-.03,2.08,15.09,4.08,33.75,2,18.67,3.41,33.82,3.15,33.85-.26.03-2.08-15.08-4.08-33.75-2-18.67-3.41-33.82-3.15-33.85Z"/>
          <g class="cls-7">
            <path d="m264.93,360.09c20.77-7.47,32.29-22.19,41.58-37.8,9.29-15.61,10.62-37.59,4.67-54.76,0,0-42.93,41.53-43.24,42.45-.31.92-3.01,50.11-3.01,50.11Z"/>
          </g>
          <g class="cls-7">
            <path d="m323.37,141.77c-.51,4.22,1.84,8.28,4.73,11.4,2.89,3.11,6.39,5.65,9.02,8.99,3.01,3.8,4.73,8.44,6.4,12.99,3.5,9.5,6.99,19.01,10.49,28.51,3.01,8.19,6.06,16.45,10.84,23.75s11.5,13.65,19.8,16.32l-6.3-53.54-33.25-53.48-21.72,5.07Z"/>
          </g>
          <g>
            <g>
              <path class="cls-3" d="m357.82,142.24c0-.67.53-25.47-1.13-28.17-1.66-2.69-2.99-5.22-3.33-7.74,0,0,.91-1.47-.75-2.4-1.65-.92-4.27,1.33-4.33,5.31s.4,10.79.4,10.79c0,0-18.3-10.38-23.31-10.67-5.02-.29-12.54-1.21-12.94,1.21s-.06,3,2.57,3.92,6.78,1.56,10.89,2.94c4.1,1.38,5.98,2.32,5.98,2.32,0,0-9.35-2.75-11.4,0-2.05,2.75-1.77,5.23-.46,6.56,0,0-2.79,1.15-2.51,4.21.29,3.06,1.65,3.81,1.65,3.81,0,0-2.74,2.08-1.42,4.73s4.39.98,7.3,3.98c2.91,3,10.14,10.04,12.94,11.6s9.18,2.19,9.18,2.19l10.67-14.6Z"/>
              <path class="cls-5" d="m357.82,142.24s-.05.09-.16.25c-.13.18-.3.42-.52.74-.48.66-1.16,1.62-2.05,2.86-1.82,2.52-4.47,6.18-7.83,10.82l-.05.06h-.08c-1.26-.14-2.58-.33-3.95-.58-1.36-.26-2.79-.58-4.21-1.12-.72-.26-1.41-.65-2.04-1.11-.64-.45-1.26-.95-1.89-1.46-1.24-1.03-2.49-2.14-3.75-3.31-1.26-1.16-2.54-2.38-3.84-3.65-.64-.64-1.3-1.29-1.96-1.94-.65-.68-1.29-1.33-2.11-1.78-.8-.47-1.73-.69-2.67-.9-.92-.21-2.04-.43-2.73-1.3-.68-.81-.97-1.96-.71-3.01.27-1.05.93-1.94,1.76-2.64l.03.36c-.72-.5-1.08-1.23-1.36-1.99-.26-.76-.4-1.55-.43-2.38-.03-.84.22-1.69.7-2.41.49-.71,1.15-1.27,1.95-1.65l-.07.37c-1.17-1.17-1.35-3.04-.81-4.53.25-.76.64-1.48,1.11-2.13.21-.33.55-.68.92-.87.37-.21.77-.34,1.17-.44,1.62-.34,3.26-.2,4.87,0,1.62.23,3.22.57,4.82,1.02l-.17.44c-2.4-1.1-5-2.04-7.65-2.84-2.66-.79-5.44-1.31-8.21-2.1-.99-.31-1.98-.6-2.9-1.19-.46-.3-.84-.83-.91-1.4-.08-.55-.02-1.08.05-1.59.04-.23.06-.54.23-.82.16-.26.39-.45.63-.6.48-.28.99-.41,1.5-.51,1.02-.19,2.03-.22,3.03-.23,2.01,0,3.98.15,5.93.29.98.08,1.93.09,2.93.28.48.11.95.26,1.42.38l1.37.48c3.6,1.37,6.97,3.03,10.22,4.68,3.25,1.66,6.37,3.34,9.37,5.03l-.32.2c-.22-3.93-.46-7.69-.36-11.33.14-1.81.83-3.68,2.34-4.73.38-.25.83-.42,1.29-.43.47-.03.94.16,1.29.43.36.27.66.67.73,1.13.08.46-.03.91-.25,1.31l.02-.12c.39,2.77,1.78,5.16,3.07,7.33.16.26.35.56.44.88.11.31.16.62.23.93.11.62.19,1.23.25,1.83.13,1.2.2,2.37.26,3.49.22,4.51.21,8.4.21,11.58-.01,3.18-.05,5.66-.09,7.34-.02.82-.04,1.46-.05,1.91-.02.43-.04.65-.04.65,0,0-.02-.22-.02-.65,0-.45,0-1.09,0-1.91,0-1.7,0-4.17,0-7.33-.03-3.18-.06-7.07-.3-11.56-.07-1.12-.15-2.28-.28-3.48-.06-.6-.15-1.2-.26-1.8-.13-.62-.25-1.17-.63-1.7-1.3-2.18-2.73-4.58-3.15-7.45v-.06s.03-.06.03-.06c.17-.31.26-.7.2-1.05-.06-.36-.29-.67-.6-.9-.61-.51-1.47-.43-2.14.02-1.36.94-2.03,2.71-2.15,4.44-.09,3.57.15,7.36.39,11.27l.02.39-.34-.19c-2.99-1.68-6.11-3.35-9.36-5-3.25-1.64-6.62-3.29-10.18-4.64l-1.35-.47c-.46-.12-.92-.26-1.38-.37-.9-.18-1.9-.2-2.87-.27-1.95-.13-3.92-.29-5.9-.29-.99,0-1.98.04-2.95.22-.92.19-2,.52-1.98,1.52-.07.49-.12.99-.05,1.44.07.46.32.82.71,1.08.8.52,1.81.82,2.77,1.12,2.73.77,5.52,1.3,8.2,2.1,2.68.82,5.26,1.74,7.72,2.88l-.17.44c-1.57-.44-3.16-.78-4.75-1.01-1.58-.21-3.2-.34-4.7-.02-.74.18-1.44.48-1.82,1.12-.45.62-.81,1.3-1.05,2.01-.5,1.4-.33,3.05.69,4.07l.23.23-.3.14c-.69.32-1.33.85-1.76,1.48-.43.64-.65,1.39-.63,2.15.02.76.16,1.54.4,2.24.24.69.63,1.39,1.15,1.75l.25.18-.23.19c-.75.62-1.38,1.47-1.61,2.39-.23.92.03,1.94.62,2.65.58.74,1.57.96,2.5,1.17.95.21,1.93.45,2.78.95.86.47,1.56,1.19,2.19,1.85.66.66,1.3,1.31,1.95,1.95,1.29,1.27,2.56,2.49,3.82,3.66,1.26,1.17,2.49,2.28,3.72,3.31,1.25,1,2.44,2.04,3.83,2.54,1.39.53,2.8.86,4.15,1.12,1.36.26,2.67.46,3.92.6l-.12.05c3.39-4.6,6.08-8.22,7.92-10.72.92-1.23,1.62-2.18,2.11-2.83.24-.31.42-.55.55-.73.13-.16.2-.24.2-.24Z"/>
            </g>
            <path class="cls-3" d="m417.12,200.14c-1.83-3.49-5.96-10.77-7.95-15.22l-13.08,4.75s-37.05-50.04-38.23-50.04-17.27,14.92-17.27,14.92c.71.71,34.07,77.16,46.84,85.44,12.78,8.28,22.3,13.54,29.16,1.71,6.86-11.83,8.57-26.18.53-41.56Z"/>
            <path class="cls-5" d="m412.84,212.13s-.25-.33-.61-.97c-.36-.64-.9-1.56-1.58-2.68-1.36-2.25-3.38-5.28-5.82-8.46-2.45-3.18-4.82-5.94-6.55-7.93-.81-.94-1.5-1.73-2.05-2.36-.48-.56-.73-.88-.71-.9.02-.02.32.26.85.78.52.52,1.26,1.29,2.16,2.26,1.79,1.93,4.22,4.66,6.67,7.86,2.46,3.2,4.44,6.27,5.73,8.58.65,1.15,1.14,2.1,1.46,2.77.32.67.48,1.04.45,1.06Z"/>
          </g>
          <path class="cls-9" d="m337.48,100.69c-.33.24-1.71-1.18-3.9-1.94-2.17-.82-4.14-.62-4.24-1.02-.04-.18.43-.5,1.3-.66.87-.17,2.14-.13,3.42.34,1.29.47,2.28,1.26,2.84,1.94.56.69.72,1.24.57,1.35Z"/>
          <path class="cls-9" d="m370.92,300.9s-.15.11-.46.27c-.31.15-.76.42-1.37.66-1.21.52-3.05,1.12-5.4,1.45-2.35.33-5.19.36-8.3-.04-3.11-.39-6.46-1.18-9.91-2.21-6.89-2.11-12.98-4.41-17.35-6.2-2.18-.89-3.93-1.66-5.13-2.2-.56-.26-1.01-.47-1.38-.64-.31-.15-.47-.24-.47-.26,0-.02.18.04.5.17.37.15.84.33,1.41.56,1.28.51,3.04,1.21,5.18,2.06,4.39,1.7,10.49,3.95,17.36,6.05,3.43,1.03,6.76,1.82,9.83,2.24,3.07.42,5.88.42,8.2.14,2.32-.28,4.15-.83,5.38-1.29,1.21-.48,1.87-.8,1.89-.76Z"/>
        </g>
        <g>
          <g>
            <path class="cls-6" d="m280.44,205.49c-16.7-11.25-36.57-15.27-49.58-15.27-12.19,0-30.14,1.9-46.39,11.05-10.09,5.68-18.15,13.45-23.94,23.09-6.86,11.42-10.58,25.54-11.05,41.99-.07,2.47.84,4.8,2.56,6.58,1.73,1.78,4.05,2.77,6.54,2.77l31.97.02c4.51,0,8.39-3.36,9.03-7.82,1.42-10.02,7.39-26.9,31.31-27.3,18.24-.29,25.74,12.9,28.12,18.59,3.88,9.26,2.89,20.24-2.66,29.36-8.52,14.02-24.17,16.16-32.74,16.18-9.86.03-17.88,8.03-17.89,17.83l-.02,34.4c0,5.02,4.08,9.11,9.11,9.12l31.15.02c5.02,0,9.11-4.08,9.12-9.11v-7.23c0-.17.11-.32.28-.38,7.06-2.47,20.74-8.45,33.07-20.69,15.74-15.63,23.73-35.8,23.74-59.97.02-34.59-17.24-53.48-31.73-63.24Z"/>
            <path class="cls-6" d="m231.93,374.76h-2.73c-13.03-.01-23.63,10.58-23.64,23.61s10.58,23.63,23.61,23.64h2.73c13.03.01,23.63-10.58,23.64-23.61,0-13.03-10.58-23.63-23.61-23.64Z"/>
          </g>
          <g class="cls-7">
            <path d="m310.97,246.64c-.42-3.52-1.34-6.89-2.64-10.13-6.24-15.56-20.87-26.17-37.53-28.06l-80.39-9.14c8.74,8.93,20.15,10.71,32.25,13.85s25.12,7.84,37.35,10.44c3.92.83,7.98,1.88,11.03,4.48,2.98,2.54,4.64,6.25,6.21,9.84,2.32,5.31,4.65,10.62,6.97,15.94,2.65,6.07,6.18,12.92,13.33,13.31,2.88.16,5.71-.92,7.9-2.8,5.17-4.44,6.27-11.35,5.51-17.71Z"/>
          </g>
          <g>
            <path class="cls-3" d="m309.82,225.1c-.62-1.09-12.84-16.03-18.91-21.82-3.92-3.74-9.83-6.32-13.54-7.68,0,0-61.17-22.09-65.41-24.24l-27.47,28.11c9.56,2.66,74.5,18.29,90.52,21.81,2.8,3.27,5.62,5.95,5.62,5.95l4.66,10.94s.54,3.98.2,8.25c-.33,4.27,3.13,2.61,3.13,2.61,0,0-.16,2.65.06,6.48,0,.04,0,.08,0,.11.23,2.86,4.34,3.21,5.21.48l3.16-9.86s-.41,8.98-.58,13.97c-.03.91.13,1.65.41,2.26,1.21,2.65,5.15,2.15,5.82-.68l3.7-15.6-1.2-9.55,3.1,8.73s.86,4.67.68,11.22c-.07,2.62.82,3.74,1.9,4.13,1.82.66,3.74-.79,3.9-2.72l1.18-14.46s-5.52-17.34-6.14-18.43Z"/>
            <path class="cls-5" d="m208.01,170.26c.03-.11,1.76.16,4.5.92,2.74.75,6.45,2.03,10.46,3.62,4.01,1.6,7.6,3.13,10.2,4.24,2.6,1.11,4.2,1.8,4.15,1.93-.04.12-1.73-.36-4.4-1.32-2.67-.95-6.3-2.4-10.3-3.99-4-1.59-7.64-2.95-10.31-3.86-2.66-.91-4.33-1.41-4.3-1.55Z"/>
          </g>
        </g>
      </g>
    </g>
  </g>
</svg>